HIERARCHY
ROOT hip
{
	OFFSET 0.000000 0.000000 0.000000 
	CHANNELS 6 Xposition Yposition Zposition Xrotation Zrotation Yrotation
	JOINT abdomen
	{
		OFFSET 0.000000 3.402643 0.000000 
		CHANNELS 3 Xrotation Zrotation Yrotation
		JOINT chest
		{
			OFFSET 0.000000 8.438565 -0.680529 
			CHANNELS 3 Xrotation Zrotation Yrotation
			JOINT neck
			{
				OFFSET 0.000000 10.207942 -0.272212 
				CHANNELS 3 Xrotation Zrotation Yrotation
				JOINT head
				{
					OFFSET 0.000000 3.130431 0.000000 
					CHANNELS 3 Xrotation Zrotation Yrotation
					End Site
					{
						OFFSET 0.000000 3.130435 0.000000 
					}
				}
			}
			JOINT lCollar
			{
				OFFSET 3.470700 6.669187 -0.816635 
				CHANNELS 3 Yrotation Zrotation Xrotation
				JOINT lShldr
				{
					OFFSET 3.198488 0.000000 0.000000 
					CHANNELS 3 Zrotation Yrotation Xrotation
					JOINT lForeArm
					{
						OFFSET 10.139888 0.000000 0.000000 
						CHANNELS 3 Yrotation Zrotation Xrotation
						JOINT lHand
						{
							OFFSET 8.370511 0.000000 0.000000 
							CHANNELS 3 Zrotation Yrotation Xrotation
							End Site
							{
								OFFSET 4.083176 0.000000 0.000000 
							}
						}
					}
				}
			}
			JOINT rCollar
			{
				OFFSET -3.470700 6.669187 -0.816635 
				CHANNELS 3 Yrotation Zrotation Xrotation
				JOINT rShldr
				{
					OFFSET -3.198488 0.000000 0.000000 
					CHANNELS 3 Zrotation Yrotation Xrotation
					JOINT rForeArm
					{
						OFFSET -10.139888 0.000000 0.000000 
						CHANNELS 3 Yrotation Zrotation Xrotation
						JOINT rHand
						{
							OFFSET -8.370511 0.000000 0.000000 
							CHANNELS 3 Zrotation Yrotation Xrotation
							End Site
							{
								OFFSET -4.083176 0.000000 0.000000 
							}
						}
					}
				}
			}
		}
	}
	JOINT lThigh
	{
		OFFSET 5.308129 -1.633274 1.361059 
		CHANNELS 3 Xrotation Zrotation Yrotation
		JOINT lShin
		{
			OFFSET -2.041588 -20.007561 0.000000 
			CHANNELS 3 Xrotation Zrotation Yrotation
			JOINT lFoot
			{
				OFFSET 0.000000 -19.190928 -1.224953 
				CHANNELS 3 Xrotation Yrotation Zrotation
				End Site
				{
					OFFSET 0.000000 -2.449906 4.627600 
				}
			}
		}
	}
	JOINT rThigh
	{
		OFFSET -5.308129 -1.633274 1.361059 
		CHANNELS 3 Xrotation Zrotation Yrotation
		JOINT rShin
		{
			OFFSET 2.041588 -20.007561 0.000000 
			CHANNELS 3 Xrotation Zrotation Yrotation
			JOINT rFoot
			{
				OFFSET 0.000000 -19.190928 -1.224953 
				CHANNELS 3 Xrotation Yrotation Zrotation
				End Site
				{
					OFFSET 0.000000 -2.449906 4.627600 
				}
			}
		}
	}
}
MOTION
Frames: 20
Frame Time: 0.033333
-0.620532 48.768005 -71.124458 -11.289062 1.562500 9.814674 21.856516 -17.076387 -12.730080 5.673829 18.759768 13.889859 -8.797127 0.670338 1.232054 44.716801 0.966797 1.435712 2.000000 -2.000000 0.000000 -6.455078 -61.083981 -59.638672 -113.462128 -0.347794 5.355311 14.216084 -8.086430 -12.725152 -2.000000 2.000000 0.000000 -15.673829 57.812504 -74.580078 112.891449 0.109847 5.565665 -13.666023 6.628736 2.963147 -4.579091 10.756723 13.584197 15.042951 -3.817669 8.958124 2.302639 -0.106429 -1.727491 7.241046 -2.215967 -12.896832 14.823236 3.757366 -19.502800 -10.423361 -0.406085 1.338385 
-0.378284 48.802864 -70.925621 -11.787109 1.806641 11.211245 21.856516 -17.076387 -12.730080 5.722656 18.789063 13.896486 -8.807604 0.549273 0.954049 44.746098 0.849609 1.152489 2.000000 -2.000000 0.000000 -4.980468 -61.835938 -61.014469 -114.243927 -0.378830 5.327871 14.155253 -6.514838 -12.749625 -2.000000 2.000000 0.000000 -15.292968 57.724613 -74.200729 113.077370 0.140286 5.547965 -14.648661 6.009976 4.537339 -3.388563 12.192839 13.453690 16.020576 -3.821252 6.703101 1.165697 -0.146677 -3.403966 8.586948 -2.206302 -13.160627 13.892617 3.764539 -20.506805 -10.134025 -0.394842 1.721864 
-0.165358 48.761337 -70.726791 -12.207031 2.060547 11.777695 21.856516 -17.076387 -12.730080 5.781252 18.369141 13.880033 -8.797531 0.587573 1.076658 44.794926 0.898438 1.289216 2.000000 -2.000000 0.000000 -5.986328 -61.738277 -60.272274 -115.073814 -0.397727 5.338814 13.599497 -6.795626 -10.588749 -2.000000 2.000000 0.000000 -14.121095 57.949219 -72.968750 113.458412 0.170126 5.540010 -14.608839 6.664894 3.856598 -1.680519 13.901467 13.819654 15.753619 -3.827034 7.169943 1.802806 -0.521831 -5.264849 8.881999 -2.538443 -12.702618 14.948403 3.736404 -21.408054 -10.761552 -0.437924 2.471243 
0.155668 48.771782 -70.626251 -11.425781 1.992188 12.783545 21.856516 -17.076387 -12.730080 4.687501 18.359375 13.567528 -8.827882 0.289853 0.479664 44.238281 1.103516 0.654485 2.000000 -2.000000 0.000000 -7.871094 -61.572269 -58.408199 -115.893173 -0.394737 5.387542 13.390703 -9.630564 -9.193885 -2.000000 2.000000 0.000000 -11.210937 57.402344 -71.007401 114.054672 0.201163 5.512566 -13.210709 7.103326 3.223984 -1.573102 14.982615 14.480469 15.530089 -3.827447 6.319249 1.579218 -0.458725 -5.683068 8.315210 -2.772531 -12.789867 14.927435 3.734768 -22.599985 -10.663675 -0.465247 3.063713 
0.465367 48.766113 -70.512100 -10.527343 1.699219 13.691696 21.856516 -17.076387 -12.730080 3.798830 18.398439 13.313631 -8.876928 0.167320 0.192002 43.740234 0.976563 0.292969 2.000000 -2.000000 0.000000 -9.580077 -60.058590 -58.729164 -117.035934 -0.424577 5.379593 11.138024 -10.740576 -9.297729 -2.000000 2.000000 0.000000 -8.749999 56.777344 -70.353157 114.436081 0.222453 5.484523 -11.160558 7.322182 3.011130 -1.915036 16.399454 14.515324 14.796437 -3.846141 7.442759 2.314403 -0.742234 -5.829386 7.757276 -2.801061 -12.411526 14.606161 3.745511 -23.764269 -10.455656 -0.399269 3.657107 
1.001333 48.817081 -70.233864 -11.806641 2.451172 15.635184 21.856516 -17.076387 -12.730080 5.166016 18.144533 13.723745 -8.808583 0.025475 -0.092741 43.847656 1.777344 0.087891 2.000000 -2.000000 0.000000 -13.066407 -58.154301 -57.119141 -116.831612 -0.426968 5.340611 11.780128 -10.860662 -4.228622 -2.000000 2.000000 0.000000 -2.724609 55.097656 -65.978317 116.232018 0.248703 5.535043 -9.956540 6.718760 1.733817 0.399608 16.667418 14.577146 13.032780 -3.866960 6.810445 2.596678 -0.728244 -7.855934 10.843521 -3.143475 -13.224177 12.601707 3.778632 -24.971865 -9.701379 -0.393887 4.278784 
1.552399 48.796196 -70.048874 -10.957031 2.333985 16.708984 21.856516 -17.076387 -12.730080 4.257813 18.281250 13.460095 -8.847659 0.100050 0.073754 43.671879 1.962891 0.244475 2.000000 -2.000000 0.000000 -20.380859 -55.019531 -50.691593 -116.861092 -0.427566 5.330865 12.514628 -12.873921 -6.179337 -2.000000 2.000000 0.000000 3.212891 53.681644 -61.144474 116.389008 0.270591 5.497254 -11.223766 7.721933 1.151027 0.097523 17.011885 14.636277 11.711703 -3.912320 8.657888 4.073970 -1.034033 -8.004600 10.433552 -3.719736 -13.590355 12.815487 3.751060 -25.642042 -9.732483 -0.402558 5.192135 
2.275996 48.837719 -69.932472 -9.687500 2.666016 16.982874 21.856516 -17.076387 -12.730080 2.744141 17.871094 12.991278 -8.905223 -0.395672 -0.918001 43.798832 -0.048828 -1.005868 2.000000 -2.000000 0.000000 -26.318359 -49.179688 -44.140621 -116.812080 -0.426969 5.340611 12.131826 -11.423165 -10.470866 -2.000000 2.000000 0.000000 10.976563 51.494141 -52.990406 113.635315 0.202958 5.483328 -14.204537 7.246664 -0.554596 -0.382334 15.756439 14.122283 10.554269 -3.890672 11.426758 4.650377 -0.799764 -7.464780 9.641204 -5.172814 -14.445816 13.183186 3.725256 -25.130543 -9.737485 -0.363639 6.149555 
3.099514 48.914989 -69.622269 -9.628906 2.197266 17.646858 21.856516 -17.076387 -12.730080 2.607422 18.212893 12.922975 -8.915969 -0.048529 -0.190201 42.978516 0.244141 -0.156250 2.000000 -2.000000 0.000000 -33.359375 -42.119141 -34.098343 -116.773010 -0.426968 5.340611 12.192043 -9.010206 -11.056405 -2.000000 2.000000 0.000000 19.257814 48.320313 -42.277863 113.977104 0.202958 5.483328 -14.826119 4.698757 -0.022848 0.048237 15.603115 14.568640 10.942365 -3.915108 10.508762 3.635887 -0.700226 -7.173759 10.694999 -5.378514 -14.322285 12.053465 3.721043 -25.779011 -9.182599 -0.375819 7.113718 
3.961915 48.949600 -69.344406 -9.736328 2.353516 18.818638 21.856516 -17.076387 -12.730080 2.822266 18.105469 12.981552 -8.903850 -0.597148 -1.401141 42.988281 -0.751953 -1.523566 2.000000 -2.000000 0.000000 -38.164063 -34.521484 -24.068035 -114.975975 -0.377634 5.347362 12.386569 -10.463138 -13.560184 -2.000000 2.000000 0.000000 29.501953 43.027348 -28.880051 111.211395 0.059913 5.582170 -14.059241 6.672390 -0.994845 -0.098414 14.772534 14.537875 12.026558 -3.886096 9.358638 2.350261 -0.531408 -6.509796 12.131163 -6.003855 -14.400730 11.004940 3.756781 -26.848970 -8.623268 -0.310161 8.142683 
4.958215 48.866795 -69.088692 -9.013672 2.763672 19.219223 21.856516 -17.076387 -12.730080 2.285157 17.500002 12.825202 -8.901404 -0.905952 -2.006329 42.597660 -2.148437 -2.285522 2.000000 -2.000000 0.000000 -43.007813 -24.726563 -12.246094 -113.520721 -0.347794 5.355310 11.318829 -13.727138 -11.912407 -2.000000 2.000000 0.000000 38.876957 37.314453 -15.003844 107.499893 -0.078344 5.603033 -15.479932 7.150495 2.574698 -1.895005 13.573533 14.045504 15.549450 -3.807554 9.155861 -0.347015 -0.348935 -6.218127 12.006801 -7.693223 -14.941281 11.842425 3.734681 -26.584299 -8.881546 -0.305019 9.635313 
6.130317 48.781597 -68.844429 -8.759767 3.671875 20.000000 21.856516 -17.076387 -12.730080 2.519531 16.542971 12.893405 -8.881460 -1.031146 -2.115805 42.021481 -1.767578 -2.412110 2.000000 -2.000000 0.000000 -48.916016 -16.093752 0.583231 -110.569290 -0.155419 5.460878 10.516793 -15.532226 -7.042290 -2.000000 2.000000 0.000000 45.712891 29.892578 -4.750992 102.187729 -0.281839 5.571014 -15.375477 8.704938 0.430878 -2.432035 11.637084 13.702138 17.922890 -3.769432 9.346703 -2.555099 -0.067283 -5.461959 12.599737 -9.859816 -16.050140 12.923454 3.711747 -26.419121 -9.147841 -0.301815 11.419631 
7.514212 48.773666 -68.440346 -10.361329 5.625000 20.429688 21.856516 -17.076387 -12.730080 4.570312 15.195313 13.447267 -8.789850 -1.356861 -2.767812 41.884766 -2.909910 -3.203670 2.000000 -2.000000 0.000000 -53.929165 -7.987641 8.973437 -106.742111 -0.051190 5.405564 8.580105 -16.164392 -3.090482 -2.000000 2.000000 0.000000 53.574223 24.902346 2.523645 93.480263 -0.504406 5.371517 -11.777723 8.917208 -0.533198 0.564953 8.987235 13.143613 18.119690 -3.779902 9.827757 -4.114780 0.018351 -4.703911 16.390751 -12.478070 -18.729862 12.740642 3.743979 -24.565380 -9.081171 -0.388545 13.010525 
8.583501 48.635117 -68.437454 -6.787109 5.937500 22.451172 21.856516 -17.076387 -12.730080 1.347657 14.736329 12.570845 -8.872943 -1.746292 -3.449984 41.542973 -2.705078 -3.965304 2.000000 -2.000000 0.000000 -57.802731 -1.865234 14.677418 -101.350723 0.155896 5.431970 8.387270 -16.829954 1.529942 -2.000000 2.000000 0.000000 58.750004 20.722658 3.860879 82.100853 -0.685804 4.979019 -10.461498 9.135962 1.506835 -3.015916 6.312249 10.931859 19.163998 -3.752700 10.524336 -5.416828 0.079431 -4.081136 13.039507 -15.073328 -19.597620 15.134335 3.676697 -26.652292 -9.358027 -0.371410 15.094452 
9.581184 48.570435 -68.126244 -7.880859 7.128906 19.874258 21.856516 -17.076387 -12.730080 2.744142 12.675782 12.931830 -8.842349 -1.251437 -2.201039 40.634769 -3.535156 -2.725212 2.000000 -2.000000 0.000000 -64.599609 4.072266 12.227259 -94.263100 0.333919 5.303647 7.694909 -13.094611 1.108761 -2.000000 2.000000 0.000000 63.671879 21.464844 5.521152 68.236015 -0.717107 4.370752 -8.551435 10.256226 9.265414 0.038425 4.444386 12.353285 18.281517 -3.739131 11.965242 -6.254279 0.239911 -3.797145 12.960875 -17.757864 -18.755186 18.573059 3.599535 -24.293417 -10.805017 -1.363685 15.310030 
10.625933 48.516949 -67.987183 -6.904297 6.337891 20.362406 21.856516 -17.076387 -12.730080 2.011719 13.574219 12.744141 -8.869418 -1.409301 -2.591993 40.332031 -3.984375 -3.145210 2.000000 -2.000000 0.000000 -69.072266 6.259766 9.708097 -86.630692 0.495632 5.068724 5.629352 -11.104685 4.728757 -2.000000 2.000000 0.000000 65.888672 21.591797 4.111328 54.500774 -0.401453 3.685775 -5.877580 11.425735 14.745772 -0.566208 3.716532 12.312534 18.423409 -3.753201 11.826519 -7.414950 0.342091 -3.013679 10.982986 -18.268759 -17.642002 20.504379 3.539403 -26.406824 -10.565125 -1.983559 14.429176 
11.663885 48.702065 -68.056656 -6.826172 7.617188 22.745436 21.856516 -17.076387 -12.730080 3.427734 13.115233 13.115233 -8.782965 -1.925218 -3.719264 39.111328 -3.515625 -4.277943 2.000000 -2.000000 0.000000 -70.517578 5.214844 10.899326 -79.945633 0.559889 4.839887 7.521496 -10.918004 -0.325329 -2.000000 2.000000 0.000000 65.146484 20.644531 1.142578 41.798775 0.053757 3.116750 0.259713 12.306626 19.515697 1.790326 0.902875 9.874945 14.502506 -3.855313 12.648785 -6.126925 0.237198 -1.526345 9.419889 -20.269445 -17.905029 24.935555 3.400322 -29.352192 -8.547160 -1.905968 8.623182 
12.502504 48.947083 -67.857819 -7.324219 7.011718 21.181639 21.856516 -17.076387 -12.730080 3.867190 13.173828 13.215117 -8.769499 -1.570966 -2.943133 38.583988 -4.287109 -3.457762 2.000000 -2.000000 0.000000 -71.494141 6.425782 10.401485 -76.979813 0.550950 4.693706 6.697380 -8.345027 -4.257910 -2.000000 2.000000 0.000000 65.615234 22.841797 2.142464 27.141300 0.677837 2.665279 3.682564 13.575788 26.441385 5.255212 0.254071 10.366375 9.408012 -3.951071 14.023332 -4.685658 0.135721 -0.589247 7.155044 -20.240242 -15.129996 27.867746 3.275563 -29.802988 -7.592382 -2.302882 5.087585 
13.082765 49.015919 -67.551903 -7.636719 7.197265 23.935549 21.856516 -17.076387 -12.730080 4.687500 13.486330 13.437500 -8.729716 -2.093194 -4.178185 38.242188 -2.753906 -4.678204 2.000000 -2.000000 0.000000 -67.910156 4.462891 16.953125 -76.335854 0.578406 4.662677 6.179938 -9.021781 -7.255011 -2.000000 2.000000 0.000000 66.230469 20.458984 -0.820312 18.541275 0.931532 2.514284 11.564859 12.257192 35.392605 6.481858 -0.008866 10.018709 8.859617 -3.961666 11.673804 -5.087614 0.059918 -0.006056 5.464584 -19.747875 -14.482141 32.124748 3.158354 -25.733995 -8.132918 -0.876257 4.628766 
13.500943 49.082485 -67.212509 -7.158203 6.386719 25.186632 21.856516 -17.076387 -12.730080 4.208984 14.238280 13.310547 -8.724941 -2.269330 -4.625665 38.085938 -2.753906 -5.146484 2.000000 -2.000000 0.000000 -65.400391 1.748047 21.455076 -75.974930 0.547972 4.644979 4.990300 -9.261821 -8.807014 -2.000000 2.000000 0.000000 67.822266 20.166016 -3.766163 6.892909 1.093375 2.426223 14.218947 10.921085 40.221954 6.433629 0.439699 10.807003 8.821673 -3.970654 9.823205 -5.692410 -0.010865 0.282672 0.966328 -18.320011 -12.709762 36.330624 2.981523 -21.077963 -8.240528 -0.075947 3.067913 
